# xmcd
#
# Track frame offsets:
#	150
#	14081
#	29138
#	41666
#	57861
#	71310
#	83331
#	104227
#	121681
#	133913
#	148461
#	166421
#	179618
#	195032
#	208459
#
# Disc length: 2962 seconds
#
# Revision: 2
# Processed by: cddbd v1.5.2PL0 Copyright (c) Steve Scherf et al.
# Submitted via: audiograbber 1.83.01
#
DISCID=e40b900f
DTITLE=Trond Erics - Flere slike dagar
DYEAR=2000
DGENRE=Dansband
TTITLE0=Finn deg en engel
TTITLE1=Jeg kan se en stjerne falle
TTITLE2=Swing and rock'n' roll
TTITLE3=Gi oss tid
TTITLE4=Itte mas om min tut-tut
TTITLE5=Brudeslør og hvite roser
TTITLE6=Ensom
TTITLE7=Flere slike dager
TTITLE8=Sommervenn
TTITLE9=Guantanamera
TTITLE10=Palma De Mallorca
TTITLE11=Ekteskap
TTITLE12=1994
TTITLE13=Vil du være med meg hjem i kveld
TTITLE14=Fånga än ängel
EXTD=P 2000 Salut Audio and Video ApS\nC 2000 All tights reserved CARAT CAR 164
EXTT0=
EXTT1=
EXTT2=
EXTT3=
EXTT4=
EXTT5=
EXTT6=
EXTT7=
EXTT8=
EXTT9=
EXTT10=
EXTT11=
EXTT12=
EXTT13=
EXTT14=
PLAYORDER=
